<?xml version="1.0" encoding="UTF-8"?>
<svg width="23.9904719px" height="24.0548436px" viewBox="0 0 23.9904719 24.0548436" version="1.1" xmlns="http://www.w3.org/2000/svg" xmlns:xlink="http://www.w3.org/1999/xlink">
    <title>facebook-gray</title>
    <defs>
        <polygon id="path-1" points="0 24.0548436 23.9904719 24.0548436 23.9904719 0 0 0"></polygon>
    </defs>
    <g id="Symbols" stroke="none" stroke-width="1" fill="none" fill-rule="evenodd">
        <g id="Contact-#2" transform="translate(-1260, -370)">
            <g id="social" transform="translate(1003.2973, 369.3153)">
                <g id="facebook-gray" transform="translate(256.7027, 0.6847)">
                    <mask id="mask-2" fill="white">
                        <use xlink:href="#path-1"></use>
                    </mask>
                    <g id="Clip-2"></g>
                    <path d="M22.666427,0 L1.32404494,0 C0.592719101,0 0,0.59430816 0,1.32759466 L0,22.7271949 C0,23.4603912 0.592719101,24.0548797 1.32404494,24.0548797 L12.8141124,24.0548797 L12.8141124,14.7395454 L9.68764045,14.7395454 L9.68764045,11.1091643 L12.8141124,11.1091643 L12.8141124,8.43189348 C12.8141124,5.32497949 14.7066067,3.63317505 17.4708315,3.63317505 C18.7949663,3.63317505 19.9329438,3.73195602 20.2645393,3.77611905 L20.2645393,7.02309293 L18.3474157,7.02399422 C16.8441348,7.02399422 16.5529888,7.74024641 16.5529888,8.79132645 L16.5529888,11.1091643 L20.1383371,11.1091643 L19.6715506,14.7395454 L16.5529888,14.7395454 L16.5529888,24.0548797 L22.666427,24.0548797 C23.3976629,24.0548797 23.9904719,23.4603912 23.9904719,22.7271949 L23.9904719,1.32759466 C23.9904719,0.59430816 23.3976629,0 22.666427,0" id="Fill-1" fill="#7D7D7D" mask="url(#mask-2)"></path>
                </g>
            </g>
        </g>
    </g>
</svg>