<?xml version="1.0" encoding="UTF-8"?>
<svg width="35.2636528px" height="22.9413405px" viewBox="0 0 35.2636528 22.9413405" version="1.1" xmlns="http://www.w3.org/2000/svg" xmlns:xlink="http://www.w3.org/1999/xlink">
    <title>google-plus-gray</title>
    <g id="Symbols" stroke="none" stroke-width="1" fill="none" fill-rule="evenodd">
        <g id="Contact-#2" transform="translate(-1122, -370.0027)" fill="#7D7D7D">
            <g id="social" transform="translate(1003.2973, 369.3153)">
                <g id="google-plus-gray" transform="translate(118.7027, 0.6874)">
                    <path d="M11.2202532,9.83200306 L11.2202532,13.7648043 L17.5837396,13.7648043 C17.3272767,15.4526315 15.6602676,18.7135792 11.2202532,18.7135792 C7.38933816,18.7135792 4.2636962,15.4690182 4.2636962,11.4706702 C4.2636962,7.47232233 7.38933816,4.22776132 11.2202532,4.22776132 C13.4001881,4.22776132 14.858821,5.17818828 15.6923255,5.99752187 L18.7378228,2.99876093 C16.7822929,1.13068035 14.2497215,0 11.2202532,0 C5.01705606,0 0,5.12902827 0,11.4706702 C0,17.8123122 5.01705606,22.9413405 11.2202532,22.9413405 C17.6959421,22.9413405 21.9916962,18.2875257 21.9916962,11.732857 C21.9916962,10.9790701 21.9115515,10.4055366 21.8153779,9.83200306 L11.2202532,9.83200306 L11.2202532,9.83200306 Z" id="Shape"></path>
                    <polyline id="Shape" points="35.2636528 9.83200306 32.0578662 9.83200306 32.0578662 6.55466871 28.8520796 6.55466871 28.8520796 9.83200306 25.6462929 9.83200306 25.6462929 13.1093374 28.8520796 13.1093374 28.8520796 16.3866718 32.0578662 16.3866718 32.0578662 13.1093374 35.2636528 13.1093374"></polyline>
                </g>
            </g>
        </g>
    </g>
</svg>