<?xml version="1.0" encoding="UTF-8"?>
<svg width="24.6925353px" height="24.0242359px" viewBox="0 0 24.6925353 24.0242359" version="1.1" xmlns="http://www.w3.org/2000/svg" xmlns:xlink="http://www.w3.org/1999/xlink">
    <title>linkedin-gray</title>
    <defs>
        <polygon id="path-1" points="0.0459568284 24.0242359 24.7384922 24.0242359 24.7384922 0 0.0459568284 0"></polygon>
    </defs>
    <g id="Symbols" stroke="none" stroke-width="1" fill="none" fill-rule="evenodd">
        <g id="Contact-#2" transform="translate(-1063.046, -370.0027)">
            <g id="social" transform="translate(1003.2973, 369.3153)">
                <g id="linkedin-gray" transform="translate(59.7027, 0.6874)">
                    <mask id="mask-2" fill="white">
                        <use xlink:href="#path-1"></use>
                    </mask>
                    <g id="Clip-9"></g>
                    <path d="M21.0880109,20.5054942 L17.426555,20.5054942 L17.426555,14.9205612 C17.426555,13.5890009 17.4025477,11.8757534 15.5231192,11.8757534 C13.6176256,11.8757534 13.3267943,13.3269669 13.3267943,14.8256408 L13.3267943,20.5054942 L9.66876797,20.5054942 L9.66876797,9.02145487 L13.1793209,9.02145487 L13.1793209,10.5916533 L13.2293933,10.5916533 C13.7177703,9.68857194 14.9133338,8.73669348 16.6953613,8.73669348 C20.4027741,8.73669348 21.0880109,11.1143843 21.0880109,14.2073208 L21.0880109,20.5054942 L21.0880109,20.5054942 Z M5.53882671,7.45259339 C4.36246909,7.45259339 3.41452376,6.52544772 3.41452376,5.38239142 C3.41452376,4.24000357 4.36246909,3.31285791 5.53882671,3.31285791 C6.71038287,3.31285791 7.66175782,4.24000357 7.66175782,5.38239142 C7.66175782,6.52544772 6.71038287,7.45259339 5.53882671,7.45259339 L5.53882671,7.45259339 Z M3.70535503,20.5054942 L7.37092654,20.5054942 L7.37092654,9.02145487 L3.70535503,9.02145487 L3.70535503,20.5054942 Z M22.9118797,0 L1.86776782,0 C0.862890898,0 0.0459568284,0.776743521 0.0459568284,1.73530652 L0.0459568284,22.3276997 C0.0459568284,23.2862627 0.862890898,24.0643432 1.86776782,24.0643432 L22.9118797,24.0643432 C23.9195003,24.0643432 24.7384922,23.2862627 24.7384922,22.3276997 L24.7384922,1.73530652 C24.7384922,0.776743521 23.9195003,0 22.9118797,0 L22.9118797,0 Z" id="Fill-10" fill="#7D7D7D" mask="url(#mask-2)"></path>
                </g>
            </g>
        </g>
    </g>
</svg>