<?xml version="1.0" encoding="UTF-8"?>
<svg width="12px" height="17.0065484px" viewBox="0 0 12 17.0065484" version="1.1" xmlns="http://www.w3.org/2000/svg" xmlns:xlink="http://www.w3.org/1999/xlink">
    <title>phone-icon</title>
    <g id="Symbols" stroke="none" stroke-width="1" fill="none" fill-rule="evenodd">
        <g id="Contact-#2" transform="translate(-1006, -309)" fill="#4B4B4B">
            <g id="phone-icon" transform="translate(1006, 309)">
                <path d="M11.9061078,14.9806543 C12.0059474,15.1684249 12.0271583,15.3881922 11.964969,15.5916003 C11.9028199,15.7949683 11.762403,15.9653372 11.5745923,16.0652168 C11.2463246,16.2397957 10.8517778,16.4496192 10.4998935,16.6367483 C9.89664592,16.9575982 9.20558766,17.0741178 8.5304476,16.9688251 C8.28946935,16.9312149 8.02776136,16.8903969 7.76962193,16.8501403 C6.78040823,16.6958501 5.92150722,16.0848239 5.4514192,15.2008627 C4.18574209,12.8209519 1.63393881,8.02271813 0.370667479,5.64737829 C-0.0971751517,4.76762725 -0.123558461,3.71895085 0.299536794,2.81682612 C0.411485425,2.57809326 0.525158193,2.33571165 0.62972912,2.11277669 C0.919825232,1.4941322 1.40278413,0.986273549 2.00607178,0.665463737 C2.35791606,0.478334704 2.75246281,0.268511214 3.08073052,0.0938922001 C3.26854119,-0.00594737389 3.48830854,-0.0271582713 3.69167654,0.0350309573 C3.89508463,0.0971800897 4.06545345,0.237597033 4.16533312,0.425367605 C4.48626322,1.02889582 4.95206094,1.90471744 5.31597418,2.58899943 C5.46348816,2.86638504 5.4947632,3.191004 5.40294287,3.49144493 C5.31112254,3.79188587 5.10370483,4.04352971 4.82635931,4.19104368 C4.6527828,4.28334517 4.47018464,4.3804582 4.28907004,4.4768094 C3.90971975,4.67853346 3.62603903,5.02271936 3.50045769,5.43358527 C3.37487635,5.84449128 3.41765901,6.28843656 3.61938306,6.66778685 C4.41384946,8.16161141 5.65194037,10.4896377 6.44055271,11.972516 C6.85214035,12.7464131 7.81316642,13.0401579 8.58706346,12.6285703 C8.7814499,12.5252022 8.97820203,12.4205511 9.16428856,12.3215937 C9.7358601,12.0176243 10.4456433,12.2345448 10.7496528,12.8061163 C11.114408,13.4920022 11.5834135,14.3739184 11.9061078,14.9806543 L11.9061078,14.9806543 Z" id="phone"></path>
            </g>
        </g>
    </g>
</svg>