<?xml version="1.0" encoding="UTF-8"?>
<svg width="24px" height="24.0636055px" viewBox="0 0 24 24.0636055" version="1.1" xmlns="http://www.w3.org/2000/svg" xmlns:xlink="http://www.w3.org/1999/xlink">
    <title>pinterest-gray</title>
    <g id="Symbols" stroke="none" stroke-width="1" fill="none" fill-rule="evenodd">
        <g id="Contact-#2" transform="translate(-1003.2973, -369.3153)" fill="#7D7D7D">
            <g id="social" transform="translate(1003.2973, 369.3153)">
                <g id="pinterest-gray" transform="translate(-0.2973, -0.3153)">
                    <path d="M12.2977012,0.315287459 C5.67031393,0.315287459 0.297333333,5.70193513 0.297333333,12.3470902 C0.297333333,17.4445615 3.46020388,21.7984364 7.92456732,23.5511993 C7.81935902,22.599573 7.72445083,21.1389372 7.96576778,20.1002629 C8.18427733,19.1611774 9.3732047,14.1190332 9.3732047,14.1190332 C9.3732047,14.1190332 9.01417218,13.3983053 9.01417218,12.333074 C9.01417218,10.6599821 9.9809114,9.41106476 11.1852889,9.41106476 C12.2094145,9.41106476 12.70382,10.1812182 12.70382,11.1055498 C12.70382,12.1383226 12.0482913,13.6815801 11.709859,15.1119704 C11.4273416,16.3092491 12.308737,17.2859571 13.4866286,17.2859571 C15.6194878,17.2859571 17.259413,15.030824 17.259413,11.7761144 C17.259413,8.89541607 15.194976,6.88077148 12.2469363,6.88077148 C8.83244875,6.88077148 6.82834097,9.44868719 6.82834097,12.1029132 C6.82834097,13.1364237 7.22563106,14.2459167 7.72150794,14.8486134 C7.81935902,14.9673822 7.83407347,15.0721349 7.80464457,15.1938546 C7.713415,15.5737674 7.51109134,16.3911333 7.47136233,16.5578523 C7.41912604,16.7784231 7.29699613,16.8248978 7.06965791,16.7194075 C5.57099141,16.0193351 4.63441681,13.8224799 4.63441681,12.0579138 C4.63441681,8.2624739 7.38454709,4.77686581 12.563297,4.77686581 C16.7252785,4.77686581 19.9609856,7.75125138 19.9609856,11.7259511 C19.9609856,15.8725338 17.3528497,19.2098652 13.7338313,19.2098652 C12.5176822,19.2098652 11.3751053,18.5761854 10.983701,17.8281628 C10.983701,17.8281628 10.3818801,20.1253445 10.2362071,20.6882057 C9.9647255,21.7335193 9.23341745,23.0436653 8.74416206,23.8425888 C9.86687443,24.1907807 11.0602161,24.3788929 12.2977012,24.3788929 C18.9243527,24.3788929 24.2973333,18.9922453 24.2973333,12.3470902 C24.2973333,5.70193513 18.9243527,0.315287459 12.2977012,0.315287459" id="Fill-4"></path>
                </g>
            </g>
        </g>
    </g>
</svg>