<?xml version="1.0" encoding="UTF-8"?>
<svg width="29.4166816px" height="23.9691649px" viewBox="0 0 29.4166816 23.9691649" version="1.1" xmlns="http://www.w3.org/2000/svg" xmlns:xlink="http://www.w3.org/1999/xlink">
    <title>twitter-gray</title>
    <defs>
        <polygon id="path-1" points="0 23.9691649 29.4166816 23.9691649 29.4166816 0 0 0"></polygon>
    </defs>
    <g id="Symbols" stroke="none" stroke-width="1" fill="none" fill-rule="evenodd">
        <g id="Contact-#2" transform="translate(-1197, -370)">
            <g id="social" transform="translate(1003.2973, 369.3153)">
                <g id="twitter-gray" transform="translate(193.7027, 0.6847)">
                    <mask id="mask-2" fill="white">
                        <use xlink:href="#path-1"></use>
                    </mask>
                    <g id="Clip-2"></g>
                    <path d="M29.423139,2.83818964 C28.3405561,3.31958441 27.177148,3.64493865 25.9560538,3.79126712 C27.2024395,3.04214304 28.1595336,1.85597596 28.6102601,0.44265442 C27.4439462,1.1362039 26.1520359,1.63993643 24.7770404,1.91144265 C23.6758386,0.735095541 22.1070135,0 20.3708341,0 C17.0369865,0 14.3341345,2.70999036 14.3341345,6.05256 C14.3341345,6.5269405 14.3876233,6.98891114 14.4905112,7.4318893 C9.4735426,7.17948348 5.02557848,4.7698118 2.048287,1.10793099 C1.52868161,2.00187278 1.23099552,3.04160348 1.23099552,4.15082942 C1.23099552,6.25068616 2.29678924,8.10331685 3.91652018,9.18869426 C2.92692377,9.15729191 1.99619731,8.88503031 1.18224215,8.43169261 C1.18181166,8.45694399 1.18181166,8.48230327 1.18181166,8.50777047 C1.18181166,11.440383 3.2626009,13.8867447 6.02410762,14.4427065 C5.51752466,14.5810495 4.98425112,14.6549692 4.43365022,14.6549692 C4.04469955,14.6549692 3.66651121,14.6170921 3.29800897,14.5464098 C4.06611659,16.9511176 6.29542601,18.7010162 8.93693274,18.7499002 C6.87099552,20.3732182 4.26812556,21.3408638 1.44,21.3408638 C0.952789238,21.3408638 0.472251121,21.3122672 0,21.2563688 C2.67142601,22.9736781 5.8444843,23.9756396 9.25345291,23.9756396 C20.3567354,23.9756396 26.4284126,14.7527373 26.4284126,6.75441869 C26.4284126,6.49197706 26.4226009,6.23093829 26.4109776,5.97141028 C27.5903139,5.11804335 28.6138117,4.05198216 29.423139,2.83818964" id="Fill-1" fill="#7D7D7D" mask="url(#mask-2)"></path>
                </g>
            </g>
        </g>
    </g>
</svg>