<?xml version="1.0" encoding="UTF-8"?>
<svg width="35.2636528px" height="22.88px" viewBox="0 0 35.2636528 22.88" version="1.1" xmlns="http://www.w3.org/2000/svg" xmlns:xlink="http://www.w3.org/1999/xlink">
    <title>google-plus-gold</title>
    <g id="Symbols" stroke="none" stroke-width="1" fill="none" fill-rule="evenodd">
        <g id="Footer-#3" transform="translate(-1051, -280)" fill="#EBCB80">
            <g id="social" transform="translate(933, 279)">
                <g id="google-plus-gold" transform="translate(118, 1)">
                    <path d="M11.2202532,9.80571429 L11.2202532,13.728 L17.5837396,13.728 C17.3272767,15.4113143 15.6602676,18.6635429 11.2202532,18.6635429 C7.38933816,18.6635429 4.2636962,15.4276571 4.2636962,11.44 C4.2636962,7.45234286 7.38933816,4.21645714 11.2202532,4.21645714 C13.4001881,4.21645714 14.858821,5.16434286 15.6923255,5.98148571 L18.7378228,2.99074286 C16.7822929,1.12765714 14.2497215,0 11.2202532,0 C5.01705606,0 0,5.11531429 0,11.44 C0,17.7646857 5.01705606,22.88 11.2202532,22.88 C17.6959421,22.88 21.9916962,18.2386286 21.9916962,11.7014857 C21.9916962,10.9497143 21.9115515,10.3777143 21.8153779,9.80571429 L11.2202532,9.80571429 L11.2202532,9.80571429 Z" id="Shape"></path>
                    <polyline id="Shape" points="35.2636528 9.80571429 32.0578662 9.80571429 32.0578662 6.53714286 28.8520796 6.53714286 28.8520796 9.80571429 25.6462929 9.80571429 25.6462929 13.0742857 28.8520796 13.0742857 28.8520796 16.3428571 32.0578662 16.3428571 32.0578662 13.0742857 35.2636528 13.0742857"></polyline>
                </g>
            </g>
        </g>
    </g>
</svg>