<?xml version="1.0" encoding="UTF-8"?>
<svg width="187.446778px" height="26.4550781px" viewBox="0 0 187.446778 26.4550781" version="1.1" xmlns="http://www.w3.org/2000/svg" xmlns:xlink="http://www.w3.org/1999/xlink">
    <title>hoffman-brand-footer</title>
    <g id="Symbols" stroke="none" stroke-width="1" fill="none" fill-rule="evenodd">
        <g id="Footer-#3" transform="translate(-163.2869, -45.8965)" fill="#EBCB80" fill-rule="nonzero">
            <g id="hoffman-brand-footer" transform="translate(163.2869, 45.8965)">
                <polygon id="Path" points="19.4765625 26.1035156 16.4882813 26.1035156 16.4882813 13.9921875 2.98828125 13.9921875 2.98828125 26.1035156 2.27373675e-13 26.1035156 2.27373675e-13 0.404296875 2.98828125 0.404296875 2.98828125 11.3554688 16.4882813 11.3554688 16.4882813 0.404296875 19.4765625 0.404296875"></polygon>
                <path d="M50.8290202,13.21875 C50.8290202,15.1992188 50.5770671,17.0009766 50.0731609,18.6240234 C49.5692546,20.2470703 48.8221843,21.6416016 47.8319499,22.8076172 C46.8417156,23.9736328 45.6141765,24.8730469 44.1493327,25.5058594 C42.684489,26.1386719 40.9852702,26.4550781 39.0516765,26.4550781 C37.059489,26.4550781 35.3221843,26.1386719 33.8397624,25.5058594 C32.3573406,24.8730469 31.1268718,23.9707031 30.1483562,22.7988281 C29.1698406,21.6269531 28.4374187,20.2265625 27.9510906,18.5976562 C27.4647624,16.96875 27.2215984,15.1640625 27.2215984,13.1835938 C27.2215984,10.5585938 27.6551921,8.25585938 28.5223796,6.27539062 C29.3895671,4.29492188 30.7049968,2.75390625 32.4686687,1.65234375 C34.2323406,0.55078125 36.4442546,0 39.1044109,0 C41.6473796,0 43.7889812,0.544921875 45.5292156,1.63476562 C47.2694499,2.72460938 48.5878093,4.25683594 49.4842937,6.23144531 C50.3807781,8.20605469 50.8290202,10.5351562 50.8290202,13.21875 Z M30.3680827,13.21875 C30.3680827,15.3984375 30.6786296,17.2851562 31.2997234,18.8789062 C31.9208171,20.4726562 32.8729656,21.703125 34.1561687,22.5703125 C35.4393718,23.4375 37.0712077,23.8710938 39.0516765,23.8710938 C41.043864,23.8710938 42.6756999,23.4375 43.9471843,22.5703125 C45.2186687,21.703125 46.1590984,20.4726562 46.7684734,18.8789062 C47.3778484,17.2851562 47.6825359,15.3984375 47.6825359,13.21875 C47.6825359,9.90234375 46.9881999,7.30957031 45.5995281,5.44042969 C44.2108562,3.57128906 42.0458171,2.63671875 39.1044109,2.63671875 C37.1122234,2.63671875 35.4715984,3.06445312 34.1825359,3.91992188 C32.8934734,4.77539062 31.9354656,5.99121094 31.3085124,7.56738281 C30.6815593,9.14355469 30.3680827,11.0273438 30.3680827,13.21875 Z" id="Shape"></path>
                <polygon id="Path" points="61.5271811 26.1035156 58.5388999 26.1035156 58.5388999 0.404296875 72.8474936 0.404296875 72.8474936 3.04101562 61.5271811 3.04101562 61.5271811 12.4628906 72.1619468 12.4628906 72.1619468 15.0820313 61.5271811 15.0820313"></polygon>
                <path d="M90.4187014,26.1035156 L81.787842,3.35742188 L81.647217,3.35742188 C81.694092,3.83789063 81.7351076,4.42382812 81.7702639,5.11523438 C81.8054201,5.80664062 81.834717,6.55957031 81.8581545,7.37402344 C81.881592,8.18847656 81.8933108,9.01757812 81.8933108,9.86132812 L81.8933108,26.1035156 L79.115967,26.1035156 L79.115967,0.404296875 L83.5456545,0.404296875 L91.6843264,21.7792969 L91.8073733,21.7792969 L100.069092,0.404296875 L104.463623,0.404296875 L104.463623,26.1035156 L101.510498,26.1035156 L101.510498,9.65039062 C101.510498,8.88867188 101.522217,8.12402344 101.545655,7.35644531 C101.569092,6.58886719 101.598389,5.86230469 101.633545,5.17675781 C101.668701,4.49121094 101.703858,3.89648438 101.739014,3.39257812 L101.598389,3.39257812 L92.8620608,26.1035156 L90.4187014,26.1035156 Z" id="Path"></path>
                <path d="M129.611003,26.1035156 L126.44694,17.9472656 L116.146159,17.9472656 L112.999675,26.1035156 L109.976237,26.1035156 L120.030925,0.298828125 L122.720378,0.298828125 L132.704753,26.1035156 L129.611003,26.1035156 Z M125.550456,15.2929688 L122.544597,7.18945312 C122.474284,6.97851562 122.360026,6.6328125 122.201823,6.15234375 C122.04362,5.671875 121.882487,5.17382812 121.718425,4.65820312 C121.554362,4.14257812 121.419597,3.7265625 121.314128,3.41015625 C121.19694,3.890625 121.070964,4.36816406 120.936198,4.84277344 C120.801433,5.31738281 120.669597,5.75683594 120.54069,6.16113281 C120.411784,6.56542969 120.300456,6.90820312 120.206706,7.18945312 L117.148112,15.2929688 L125.550456,15.2929688 Z" id="Shape"></path>
                <path d="M158.34432,26.1035156 L154.899008,26.1035156 L140.889242,4.51757812 L140.748617,4.51757812 C140.783773,5.09179688 140.824789,5.74511719 140.871664,6.47753906 C140.918539,7.20996094 140.956625,7.98925781 140.985922,8.81542969 C141.015218,9.64160156 141.029867,10.4824219 141.029867,11.3378906 L141.029867,26.1035156 L138.252523,26.1035156 L138.252523,0.404296875 L141.680258,0.404296875 L155.637289,21.9199219 L155.760336,21.9199219 C155.736898,21.5097656 155.707601,20.9267578 155.672445,20.1708984 C155.637289,19.4150391 155.605062,18.6005859 155.575765,17.7275391 C155.546468,16.8544922 155.53182,16.0429688 155.53182,15.2929688 L155.53182,0.404296875 L158.34432,0.404296875 L158.34432,26.1035156 Z" id="Path"></path>
                <path d="M187.446778,26.1035156 L184.001465,26.1035156 L169.9917,4.51757812 L169.851075,4.51757812 C169.886231,5.09179688 169.927247,5.74511719 169.974122,6.47753906 C170.020997,7.20996094 170.059082,7.98925781 170.088379,8.81542969 C170.117676,9.64160156 170.132325,10.4824219 170.132325,11.3378906 L170.132325,26.1035156 L167.354981,26.1035156 L167.354981,0.404296875 L170.782715,0.404296875 L184.739747,21.9199219 L184.862793,21.9199219 C184.839356,21.5097656 184.810059,20.9267578 184.774903,20.1708984 C184.739747,19.4150391 184.70752,18.6005859 184.678223,17.7275391 C184.648926,16.8544922 184.634278,16.0429688 184.634278,15.2929688 L184.634278,0.404296875 L187.446778,0.404296875 L187.446778,26.1035156 Z" id="Path"></path>
            </g>
        </g>
    </g>
</svg>