<?xml version="1.0" encoding="UTF-8"?>
<svg width="24px" height="23.995px" viewBox="0 0 24 23.995" version="1.1" xmlns="http://www.w3.org/2000/svg" xmlns:xlink="http://www.w3.org/1999/xlink">
    <title>instagram-gold</title>
    <defs>
        <polygon id="path-1" points="0 23.995 24 23.995 24 0 0 0"></polygon>
    </defs>
    <g id="Symbols" stroke="none" stroke-width="1" fill="none" fill-rule="evenodd">
        <g id="Footer-#3" transform="translate(-1240, -281)">
            <g id="social" transform="translate(933, 279)">
                <g id="instagram-gold" transform="translate(307, 2)">
                    <mask id="mask-2" fill="white">
                        <use xlink:href="#path-1"></use>
                    </mask>
                    <g id="Clip-2"></g>
                    <path d="M21.3333333,6.66666667 C21.3333333,7.03483333 21.0348333,7.33333333 20.6666667,7.33333333 L17.3333333,7.33333333 C16.9651667,7.33333333 16.6666667,7.03483333 16.6666667,6.66666667 L16.6666667,3.33333333 C16.6666667,2.96516667 16.9651667,2.66666667 17.3333333,2.66666667 L20.6666667,2.66666667 C21.0348333,2.66666667 21.3333333,2.96516667 21.3333333,3.33333333 L21.3333333,6.66666667 L21.3333333,6.66666667 Z M21.3333333,20.6666667 C21.3333333,21.0348333 21.0348333,21.3333333 20.6666667,21.3333333 L3.33333333,21.3333333 C2.96516667,21.3333333 2.66666667,21.0348333 2.66666667,20.6666667 L2.66666667,10 L4.94283333,10 C4.763,10.63575 4.66666667,11.3066667 4.66666667,12 C4.66666667,16.0500833 7.94991667,19.3333333 12,19.3333333 C16.0500833,19.3333333 19.3333333,16.0500833 19.3333333,12 C19.3333333,11.3066667 19.237,10.63575 19.0571667,10 L21.3333333,10 L21.3333333,20.6666667 L21.3333333,20.6666667 Z M12,7.33333333 C14.5773333,7.33333333 16.6666667,9.42266667 16.6666667,12 C16.6666667,14.5773333 14.5773333,16.6666667 12,16.6666667 C9.42266667,16.6666667 7.33333333,14.5773333 7.33333333,12 C7.33333333,9.42266667 9.42266667,7.33333333 12,7.33333333 L12,7.33333333 Z M20.6666667,0 L3.33333333,0 C1.49241667,0 0,1.49241667 0,3.33333333 L0,20.6666667 C0,22.5075833 1.49241667,24 3.33333333,24 L20.6666667,24 C22.5075833,24 24,22.5075833 24,20.6666667 L24,3.33333333 C24,1.49241667 22.5075833,0 20.6666667,0 L20.6666667,0 Z" id="Fill-1" fill="#EBCB80" mask="url(#mask-2)"></path>
                </g>
            </g>
        </g>
    </g>
</svg>