<?xml version="1.0" encoding="UTF-8"?>
<svg width="24.6925353px" height="23.96px" viewBox="0 0 24.6925353 23.96" version="1.1" xmlns="http://www.w3.org/2000/svg" xmlns:xlink="http://www.w3.org/1999/xlink">
    <title>linkedin-gold</title>
    <defs>
        <polygon id="path-1" points="0.0459568284 23.96 24.7384922 23.96 24.7384922 0 0.0459568284 0"></polygon>
    </defs>
    <g id="Symbols" stroke="none" stroke-width="1" fill="none" fill-rule="evenodd">
        <g id="Footer-#3" transform="translate(-993.046, -280)">
            <g id="social" transform="translate(933, 279)">
                <g id="linkedin-gold" transform="translate(60, 1)">
                    <mask id="mask-2" fill="white">
                        <use xlink:href="#path-1"></use>
                    </mask>
                    <g id="Clip-9"></g>
                    <path d="M21.0880109,20.4506667 L17.426555,20.4506667 L17.426555,14.8806667 C17.426555,13.5526667 17.4025477,11.844 15.5231192,11.844 C13.6176256,11.844 13.3267943,13.2913333 13.3267943,14.786 L13.3267943,20.4506667 L9.66876797,20.4506667 L9.66876797,8.99733333 L13.1793209,8.99733333 L13.1793209,10.5633333 L13.2293933,10.5633333 C13.7177703,9.66266667 14.9133338,8.71333333 16.6953613,8.71333333 C20.4027741,8.71333333 21.0880109,11.0846667 21.0880109,14.1693333 L21.0880109,20.4506667 L21.0880109,20.4506667 Z M5.53882671,7.43266667 C4.36246909,7.43266667 3.41452376,6.508 3.41452376,5.368 C3.41452376,4.22866667 4.36246909,3.304 5.53882671,3.304 C6.71038287,3.304 7.66175782,4.22866667 7.66175782,5.368 C7.66175782,6.508 6.71038287,7.43266667 5.53882671,7.43266667 L5.53882671,7.43266667 Z M3.70535503,20.4506667 L7.37092654,20.4506667 L7.37092654,8.99733333 L3.70535503,8.99733333 L3.70535503,20.4506667 Z M22.9118797,0 L1.86776782,0 C0.862890898,0 0.0459568284,0.774666667 0.0459568284,1.73066667 L0.0459568284,22.268 C0.0459568284,23.224 0.862890898,24 1.86776782,24 L22.9118797,24 C23.9195003,24 24.7384922,23.224 24.7384922,22.268 L24.7384922,1.73066667 C24.7384922,0.774666667 23.9195003,0 22.9118797,0 L22.9118797,0 Z" id="Fill-10" fill="#EBCB80" mask="url(#mask-2)"></path>
                </g>
            </g>
        </g>
    </g>
</svg>