<?xml version="1.0" encoding="UTF-8"?>
<svg width="24px" height="23.9992643px" viewBox="0 0 24 23.9992643" version="1.1" xmlns="http://www.w3.org/2000/svg" xmlns:xlink="http://www.w3.org/1999/xlink">
    <title>pinterest-gold</title>
    <g id="Symbols" stroke="none" stroke-width="1" fill="none" fill-rule="evenodd">
        <g id="Footer-#3" transform="translate(-933.2973, -279.3144)" fill="#EBCB80">
            <g id="pinterest-gold" transform="translate(933, 279)">
                <path d="M0.297333333,12.3140766 C0.297333333,17.3979183 3.46020388,21.7401518 7.92456732,23.4882282 C7.81935902,22.5391463 7.72445083,21.082416 7.96576778,20.0465189 C8.18427733,19.1099443 9.3732047,14.0812818 9.3732047,14.0812818 C9.3732047,14.0812818 9.01417218,13.362481 9.01417218,12.3000979 C9.01417218,10.6314795 9.9809114,9.38590148 11.1852889,9.38590148 C12.2094145,9.38590148 12.70382,10.1539957 12.70382,11.0758558 C12.70382,12.1058671 12.0482913,13.6449984 11.709859,15.0715641 C11.4273416,16.2656415 12.308737,17.239738 13.4866286,17.239738 C15.6194878,17.239738 17.259413,14.9906346 17.259413,11.7446275 C17.259413,8.87163153 15.194976,6.86237369 12.2469363,6.86237369 C8.83244875,6.86237369 6.82834097,9.42342332 6.82834097,12.0705525 C6.82834097,13.1012995 7.22563106,14.207826 7.72150794,14.8089112 C7.81935902,14.9273625 7.83407347,15.0318351 7.80464457,15.1532293 C7.713415,15.5321263 7.51109134,16.3473067 7.47136233,16.51358 C7.41912604,16.733561 7.29699613,16.7799115 7.06965791,16.6747032 C5.57099141,15.9765026 4.63441681,13.7855214 4.63441681,12.0256734 C4.63441681,8.24038172 7.38454709,4.76409344 12.563297,4.76409344 C16.7252785,4.76409344 19.9609856,7.73052611 19.9609856,11.6945983 C19.9609856,15.8300939 17.3528497,19.158502 13.7338313,19.158502 C12.5176822,19.158502 11.3751053,18.5265164 10.983701,17.7804939 C10.983701,17.7804939 10.3818801,20.0715334 10.2362071,20.6328896 C9.9647255,21.6754082 9.23341745,22.9820512 8.74416206,23.7788385 C9.86687443,24.1260995 11.0602161,24.3137087 12.2977012,24.3137087 C18.9243527,24.3137087 24.2973333,18.9414638 24.2973333,12.3140766 C24.2973333,5.68668932 18.9243527,0.314444444 12.2977012,0.314444444 C5.67031393,0.314444444 0.297333333,5.68668932 0.297333333,12.3140766 Z" id="Fill-4"></path>
            </g>
        </g>
    </g>
</svg>