<?xml version="1.0" encoding="UTF-8"?>
<svg width="18px" height="18px" viewBox="0 0 18 18" version="1.1" xmlns="http://www.w3.org/2000/svg" xmlns:xlink="http://www.w3.org/1999/xlink">
    <title>facebook</title>
    <defs>
        <polygon id="path-1" points="6.50878269e-06 17.3309744 17.371558 17.3309744 17.371558 2.5974221e-05 6.50878269e-06 2.5974221e-05"></polygon>
    </defs>
    <g id="Symbols" stroke="none" stroke-width="1" fill="none" fill-rule="evenodd">
        <g id="Footer-#3-tablet" transform="translate(-687.7391, -185)">
            <g id="social" transform="translate(524, 185)">
                <g id="facebook" transform="translate(163.7391, 0)">
                    <mask id="mask-2" fill="white">
                        <use xlink:href="#path-1"></use>
                    </mask>
                    <g id="Clip-2"></g>
                    <path d="M16.4128142,2.5974221e-05 L0.958750254,2.5974221e-05 C0.429195664,2.5974221e-05 6.50878269e-06,0.42821101 6.50878269e-06,0.956526669 L6.50878269e-06,16.3744348 C6.50878269e-06,16.9026855 0.429195664,17.3310004 0.958750254,17.3310004 L9.27873238,17.3310004 L9.27873238,10.6195214 L7.01484746,10.6195214 L7.01484746,8.0039173 L9.27873238,8.0039173 L9.27873238,6.0750067 C9.27873238,3.83654831 10.6490916,2.61764305 12.6506725,2.61764305 C13.6094814,2.61764305 14.4334933,2.68881242 14.6736023,2.72063084 L14.6736023,5.05999907 L13.2854091,5.06064842 C12.1968802,5.06064842 11.9860607,5.57669126 11.9860607,6.33396968 L11.9860607,8.0039173 L14.582219,8.0039173 L14.2442179,10.6195214 L11.9860607,10.6195214 L11.9860607,17.3310004 L16.4128142,17.3310004 C16.9423037,17.3310004 17.371558,16.9026855 17.371558,16.3744348 L17.371558,0.956526669 C17.371558,0.42821101 16.9423037,2.5974221e-05 16.4128142,2.5974221e-05" id="Fill-1" fill="#EBCB80" mask="url(#mask-2)"></path>
                </g>
            </g>
        </g>
    </g>
</svg>