<?xml version="1.0" encoding="UTF-8"?>
<svg width="26px" height="17px" viewBox="0 0 26 17" version="1.1" xmlns="http://www.w3.org/2000/svg" xmlns:xlink="http://www.w3.org/1999/xlink">
    <title>google-plus</title>
    <g id="Symbols" stroke="none" stroke-width="1" fill="none" fill-rule="evenodd">
        <g id="Footer-#3-tablet" transform="translate(-600, -185.7826)" fill="#EBCB80">
            <g id="social" transform="translate(524, 185)">
                <g id="google-plus" transform="translate(76, 0.7826)">
                    <path d="M8.12460906,7.08372671 L8.12460906,9.91721739 L12.7324231,9.91721739 C12.5467177,11.1332571 11.3396329,13.4826932 8.12460906,13.4826932 C5.35063539,13.4826932 3.08735144,11.1450634 3.08735144,8.26434783 C3.08735144,5.3836323 5.35063539,3.04600248 8.12460906,3.04600248 C9.70310453,3.04600248 10.7593037,3.73076273 11.3628461,4.32107329 L13.5680971,2.16053665 C12.1520938,0.814628571 10.3182535,0 8.12460906,0 C3.63286091,0 0,3.6953441 0,8.26434783 C0,12.8333516 3.63286091,16.5286957 8.12460906,16.5286957 C12.8136691,16.5286957 15.9242338,13.1757317 15.9242338,8.4532472 C15.9242338,7.91016149 15.8662008,7.4969441 15.7965613,7.08372671 L8.12460906,7.08372671 L8.12460906,7.08372671 Z" id="Shape"></path>
                    <polyline id="Shape" points="25.5344856 7.08372671 23.2131687 7.08372671 23.2131687 4.72248447 20.8918519 4.72248447 20.8918519 7.08372671 18.570535 7.08372671 18.570535 9.44496894 20.8918519 9.44496894 20.8918519 11.8062112 23.2131687 11.8062112 23.2131687 9.44496894 25.5344856 9.44496894"></polyline>
                </g>
            </g>
        </g>
    </g>
</svg>