<?xml version="1.0" encoding="UTF-8"?>
<svg width="18px" height="18px" viewBox="0 0 18 18" version="1.1" xmlns="http://www.w3.org/2000/svg" xmlns:xlink="http://www.w3.org/1999/xlink">
    <title>instagram</title>
    <defs>
        <polygon id="path-1" points="0 17.3341806 17.3784508 17.3341806 17.3784508 0 0 0"></polygon>
    </defs>
    <g id="Symbols" stroke="none" stroke-width="1" fill="none" fill-rule="evenodd">
        <g id="Footer-#3-tablet" transform="translate(-726.2609, -185)">
            <g id="social" transform="translate(524, 185)">
                <g id="instagram" transform="translate(202.2609, 0)">
                    <mask id="mask-2" fill="white">
                        <use xlink:href="#path-1"></use>
                    </mask>
                    <g id="Clip-2"></g>
                    <path d="M15.4475118,4.81605351 C15.4475118,5.08202007 15.2313673,5.29765886 14.9647771,5.29765886 L12.5511033,5.29765886 C12.2845131,5.29765886 12.0683686,5.08202007 12.0683686,4.81605351 L12.0683686,2.40802676 C12.0683686,2.1420602 12.2845131,1.9264214 12.5511033,1.9264214 L14.9647771,1.9264214 C15.2313673,1.9264214 15.4475118,2.1420602 15.4475118,2.40802676 L15.4475118,4.81605351 L15.4475118,4.81605351 Z M15.4475118,14.9297659 C15.4475118,15.1957324 15.2313673,15.4113712 14.9647771,15.4113712 L2.41367372,15.4113712 C2.14708346,15.4113712 1.93093898,15.1957324 1.93093898,14.9297659 L1.93093898,7.22408027 L3.57911608,7.22408027 C3.44889838,7.68335117 3.37914321,8.16802676 3.37914321,8.66889632 C3.37914321,11.594709 5.75655148,13.9665552 8.68922539,13.9665552 C11.6218993,13.9665552 13.9993076,11.594709 13.9993076,8.66889632 C13.9993076,8.16802676 13.9295524,7.68335117 13.7993347,7.22408027 L15.4475118,7.22408027 L15.4475118,14.9297659 L15.4475118,14.9297659 Z M8.68922539,5.29765886 C10.5554779,5.29765886 12.0683686,6.80701003 12.0683686,8.66889632 C12.0683686,10.5307826 10.5554779,12.0401338 8.68922539,12.0401338 C6.82297287,12.0401338 5.31008218,10.5307826 5.31008218,8.66889632 C5.31008218,6.80701003 6.82297287,5.29765886 8.68922539,5.29765886 L8.68922539,5.29765886 Z M14.9647771,0 L2.41367372,0 C1.08066207,0 0,1.07813378 0,2.40802676 L0,14.9297659 C0,16.2596589 1.08066207,17.3377926 2.41367372,17.3377926 L14.9647771,17.3377926 C16.2977887,17.3377926 17.3784508,16.2596589 17.3784508,14.9297659 L17.3784508,2.40802676 C17.3784508,1.07813378 16.2977887,0 14.9647771,0 L14.9647771,0 Z" id="Fill-1" fill="#EBCB80" mask="url(#mask-2)"></path>
                </g>
            </g>
        </g>
    </g>
</svg>