<?xml version="1.0" encoding="UTF-8"?>
<svg width="24px" height="32px" viewBox="0 0 24 32" version="1.1" xmlns="http://www.w3.org/2000/svg" xmlns:xlink="http://www.w3.org/1999/xlink">
    <title>layers</title>
    <g id="Symbols" stroke="none" stroke-width="1" fill="none" fill-rule="evenodd" stroke-linecap="round" stroke-linejoin="round">
        <g id="Advantages-#2-tablet" transform="translate(-60, -488)" stroke="#4B4B4B" stroke-width="2">
            <g id="layers" transform="translate(60, 488)">
                <path d="M15.0235333,1.3312 C14.1696667,0.392933333 12.7146,0.324466667 11.7763333,1.17833333 L1.3312,10.6843333 C0.392933333,11.5382667 0.324466667,12.9933333 1.1784,13.9316 L9.28433333,22.8383333 C10.1382667,23.7766 11.5932667,23.8451333 12.5315333,22.9912 L22.9766667,13.4852 C23.9149333,12.6312667 23.9834667,11.1762667 23.1295333,10.2379333 L15.0235333,1.3312 Z" id="Stroke-1"></path>
                <path d="M1.2658,15.5806667 C0.363,16.4022 0.2972,17.8001333 1.1188,18.7028667 L8.9128,27.2668 C9.7344,28.1696 11.1322667,28.2354 12.035,27.4138 L22.0781333,18.2736667 C22.9808667,17.4520667 23.0466667,16.0542 22.2250667,15.1514" id="Stroke-2"></path>
                <path d="M1.2404,19.7472667 C0.351666667,20.5560667 0.286866667,21.9322 1.09573333,22.8209333 L8.7686,31.2518667 C9.57746667,32.1406 10.9536,32.2054 11.8423333,31.3965333 L21.7294,22.3984 C22.6181333,21.5896 22.6829333,20.2134 21.8740667,19.3246667" id="Stroke-3"></path>
                <line x1="5.06153333" y1="11.9632" x2="13.0615333" y2="4.62986667" id="Stroke-4"></line>
            </g>
        </g>
    </g>
</svg>