<?xml version="1.0" encoding="UTF-8"?>
<svg width="18px" height="18px" viewBox="0 0 18 18" version="1.1" xmlns="http://www.w3.org/2000/svg" xmlns:xlink="http://www.w3.org/1999/xlink">
    <title>linkedin</title>
    <defs>
        <polygon id="path-1" points="0.0332774367 17.3088963 17.9131945 17.3088963 17.9131945 0 0.0332774367 0"></polygon>
    </defs>
    <g id="Symbols" stroke="none" stroke-width="1" fill="none" fill-rule="evenodd">
        <g id="Footer-#3-tablet" transform="translate(-562, -185)">
            <g id="social" transform="translate(524, 185)">
                <g id="linkedin" transform="translate(38, 0)">
                    <mask id="mask-2" fill="white">
                        <use xlink:href="#path-1"></use>
                    </mask>
                    <g id="Clip-9"></g>
                    <path d="M15.2698733,14.7737258 L12.6186053,14.7737258 L12.6186053,10.749913 C12.6186053,9.79055518 12.6012216,8.55620067 11.2403234,8.55620067 C9.86055151,8.55620067 9.64995997,9.60176589 9.64995997,10.6815251 L9.64995997,14.7737258 L7.00117534,14.7737258 L7.00117534,6.49974582 L9.54317416,6.49974582 L9.54317416,7.63103679 L9.57943167,7.63103679 C9.93306652,6.98038796 10.7987766,6.29458194 12.0891464,6.29458194 C14.7736919,6.29458194 15.2698733,8.00765217 15.2698733,10.2360401 L15.2698733,14.7737258 L15.2698733,14.7737258 Z M4.01067614,5.36941806 C3.1588731,5.36941806 2.47246388,4.70143144 2.47246388,3.87788629 C2.47246388,3.05482274 3.1588731,2.38683612 4.01067614,2.38683612 C4.85900244,2.38683612 5.54789505,3.05482274 5.54789505,3.87788629 C5.54789505,4.70143144 4.85900244,5.36941806 4.01067614,5.36941806 L4.01067614,5.36941806 Z M2.68305542,14.7737258 L5.33730351,14.7737258 L5.33730351,6.49974582 L2.68305542,6.49974582 L2.68305542,14.7737258 Z M16.5905406,0 L1.35245463,0 C0.624821125,0 0.0332774367,0.559625418 0.0332774367,1.25024749 L0.0332774367,16.0865819 C0.0332774367,16.777204 0.624821125,17.3377926 1.35245463,17.3377926 L16.5905406,17.3377926 C17.3201608,17.3377926 17.9131945,16.777204 17.9131945,16.0865819 L17.9131945,1.25024749 C17.9131945,0.559625418 17.3201608,0 16.5905406,0 L16.5905406,0 Z" id="Fill-10" fill="#EBCB80" mask="url(#mask-2)"></path>
                </g>
            </g>
        </g>
    </g>
</svg>