<?xml version="1.0" encoding="UTF-8"?>
<svg width="12px" height="17.0065484px" viewBox="0 0 12 17.0065484" version="1.1" xmlns="http://www.w3.org/2000/svg" xmlns:xlink="http://www.w3.org/1999/xlink">
    <title>phone</title>
    <g id="Symbols" stroke="none" stroke-width="1" fill="none" fill-rule="evenodd">
        <g id="Contact-#2-Tablet" transform="translate(-402, -185)" fill="#4B4B4B">
            <path d="M413.906108,199.980654 C414.005947,200.168425 414.027158,200.388192 413.964969,200.5916 C413.90282,200.794968 413.762403,200.965337 413.574592,201.065217 C413.246325,201.239796 412.851778,201.449619 412.499893,201.636748 C411.896646,201.957598 411.205588,202.074118 410.530448,201.968825 C410.289469,201.931215 410.027761,201.890397 409.769622,201.85014 C408.780408,201.69585 407.921507,201.084824 407.451419,200.200863 C406.185742,197.820952 403.633939,193.022718 402.370667,190.647378 C401.902825,189.767627 401.876442,188.718951 402.299537,187.816826 C402.411485,187.578093 402.525158,187.335712 402.629729,187.112777 C402.919825,186.494132 403.402784,185.986274 404.006072,185.665464 C404.357916,185.478335 404.752463,185.268511 405.080731,185.093892 C405.268541,184.994053 405.488309,184.972842 405.691677,185.035031 C405.895085,185.09718 406.065453,185.237597 406.165333,185.425368 C406.486263,186.028896 406.952061,186.904717 407.315974,187.588999 C407.463488,187.866385 407.494763,188.191004 407.402943,188.491445 C407.311123,188.791886 407.103705,189.04353 406.826359,189.191044 C406.652783,189.283345 406.470185,189.380458 406.28907,189.476809 C405.90972,189.678533 405.626039,190.022719 405.500458,190.433585 C405.374876,190.844491 405.417659,191.288437 405.619383,191.667787 C406.413849,193.161611 407.65194,195.489638 408.440553,196.972516 C408.85214,197.746413 409.813166,198.040158 410.587063,197.62857 C410.78145,197.525202 410.978202,197.420551 411.164289,197.321594 C411.73586,197.017624 412.445643,197.234545 412.749653,197.806116 C413.114408,198.492002 413.583413,199.373918 413.906108,199.980654 L413.906108,199.980654 Z" id="phone"></path>
        </g>
    </g>
</svg>