<?xml version="1.0" encoding="UTF-8"?>
<svg width="18px" height="18px" viewBox="0 0 18 18" version="1.1" xmlns="http://www.w3.org/2000/svg" xmlns:xlink="http://www.w3.org/1999/xlink">
    <title>Pinterest</title>
    <g id="Symbols" stroke="none" stroke-width="1" fill="none" fill-rule="evenodd">
        <g id="Footer-#3-tablet" transform="translate(-524, -185)" fill="#EBCB80">
            <g id="Pinterest" transform="translate(524, 185)">
                <path d="M0,8.66863058 C0,12.3412386 2.29024125,15.478103 5.52289627,16.7409274 C5.44671472,16.055303 5.3779915,15.0029493 5.55272961,14.254609 C5.71095283,13.5780199 6.57185766,9.94527378 6.57185766,9.94527378 C6.57185766,9.94527378 6.31188145,9.42600633 6.31188145,8.65853223 C6.31188145,7.45310892 7.01189937,6.55329338 7.8839917,6.55329338 C8.62556318,6.55329338 8.98356321,7.10817077 8.98356321,7.77412995 C8.98356321,8.51821841 8.50889353,9.63009917 8.26383399,10.6606617 C8.05926254,11.5232728 8.69748283,12.2269679 9.55039659,12.2269679 C11.0948045,12.2269679 12.2822778,10.6021976 12.2822778,8.25725595 C12.2822778,6.18178064 10.7874145,4.73027665 8.65273283,4.73027665 C6.18029513,4.73027665 4.72911645,6.58039946 4.72911645,8.4927068 C4.72911645,9.23732676 5.01679504,10.0366904 5.37586055,10.4709191 C5.44671472,10.5564893 5.45736948,10.6319611 5.43605995,10.7196573 C5.37000043,10.9933755 5.22349744,11.5822684 5.19472958,11.7023855 C5.15690517,11.8613016 5.06847064,11.8947855 4.90385456,11.8187822 C3.81866697,11.3143965 3.14049132,9.73161409 3.14049132,8.46028581 C3.14049132,5.72576071 5.13186648,3.21446215 8.88181023,3.21446215 C11.8955099,3.21446215 14.2384922,5.35743692 14.2384922,8.22111451 C14.2384922,11.2086297 12.3499355,13.6130984 9.7293966,13.6130984 C8.84878046,13.6130984 8.02143814,13.156547 7.73802145,12.6176143 C7.73802145,12.6176143 7.30224165,14.2726797 7.1967595,14.6782079 C7.00017913,15.4313317 6.47063742,16.3752611 6.11636656,16.9508666 C6.92932495,17.2017308 7.79342621,17.3372612 8.68949176,17.3372612 C13.4878642,17.3372612 17.3784508,13.4563083 17.3784508,8.66863058 C17.3784508,3.88095282 13.4878642,0 8.68949176,0 C3.89058662,0 0,3.88095282 0,8.66863058 Z" id="Fill-4"></path>
            </g>
        </g>
    </g>
</svg>