<?xml version="1.0" encoding="UTF-8"?>
<svg width="39px" height="33px" viewBox="0 0 39 33" version="1.1" xmlns="http://www.w3.org/2000/svg" xmlns:xlink="http://www.w3.org/1999/xlink">
    <title>responsive</title>
    <g id="Symbols" stroke="none" stroke-width="1" fill="none" fill-rule="evenodd">
        <g id="Advantages-#2-tablet" transform="translate(-50, -208)">
            <g id="responsive" transform="translate(50, 208)">
                <g id="desktop" stroke="#4B4B4B" stroke-width="2">
                    <rect id="Rectangle-796" x="0" y="0" width="32.7272727" height="21.2769556" rx="4"></rect>
                    <line x1="18.7629273" y1="21.6098774" x2="18.7629273" y2="25.4897928" id="Stroke-2" stroke-linecap="round" stroke-linejoin="round"></line>
                    <line x1="13.6283455" y1="21.6098774" x2="13.6283455" y2="25.4897928" id="Stroke-3" stroke-linecap="round" stroke-linejoin="round"></line>
                    <line x1="20.4356727" y1="26.1155856" x2="12.0720545" y2="26.1155856" id="Stroke-4" stroke-linecap="round" stroke-linejoin="round"></line>
                </g>
                <g id="phone" transform="translate(22.5455, 7.2727)">
                    <rect id="Rectangle-796" stroke="#4B4B4B" stroke-width="2" fill="#FFFFFF" x="0" y="0" width="16" height="24.7272727" rx="4"></rect>
                    <line x1="0.403917241" y1="18.5355636" x2="15.8521931" y2="18.5355636" id="Stroke-2" stroke="#4B4B4B" stroke-width="2" stroke-linecap="round" stroke-linejoin="round"></line>
                    <path d="M8.27586207,20.3313131 C8.88485517,20.3313131 9.37931034,20.8237705 9.37931034,21.430303 C9.37931034,22.0368722 8.88485517,22.5292929 8.27586207,22.5292929 C7.66683218,22.5292929 7.17241379,22.0368722 7.17241379,21.430303 C7.17241379,20.8237705 7.66683218,20.3313131 8.27586207,20.3313131 L8.27586207,20.3313131 Z" id="Stroke-3" fill="#4B4B4B"></path>
                </g>
            </g>
        </g>
    </g>
</svg>