<?xml version="1.0" encoding="UTF-8"?>
<svg width="22px" height="18px" viewBox="0 0 22 18" version="1.1" xmlns="http://www.w3.org/2000/svg" xmlns:xlink="http://www.w3.org/1999/xlink">
    <title>twitter</title>
    <defs>
        <polygon id="path-1" points="0.00467581635 17.3331278 21.3053572 17.3331278 21.3053572 0.0639088141 0.00467581635 0.0639088141"></polygon>
    </defs>
    <g id="Symbols" stroke="none" stroke-width="1" fill="none" fill-rule="evenodd">
        <g id="Footer-#3-tablet" transform="translate(-645.8261, -185)">
            <g id="social" transform="translate(524, 185)">
                <g id="twitter" transform="translate(121.8261, 0)">
                    <mask id="mask-2" fill="white">
                        <use xlink:href="#path-1"></use>
                    </mask>
                    <g id="Clip-2"></g>
                    <path d="M21.3053572,2.10875762 C20.5214566,2.45559122 19.6790304,2.69000129 18.7948335,2.79542751 C19.697344,2.25570125 20.3903779,1.40109579 20.7167499,0.382830901 C19.8722195,0.88251697 18.9367445,1.2454444 17.9411074,1.44105824 C17.1437248,0.593527843 16.0077352,0.0639088141 14.7505641,0.0639088141 C12.336518,0.0639088141 10.3793771,2.01639306 10.3793771,4.42463578 C10.3793771,4.76641577 10.4181085,5.09925474 10.4926098,5.41841007 C6.85981224,5.23655761 3.63903201,3.50044591 1.48316895,0.862147007 C1.10692159,1.50621102 0.891366458,2.25531251 0.891366458,3.05448368 C0.891366458,4.56738102 1.66310995,5.90215781 2.83596055,6.68414668 C2.11939169,6.66152202 1.4454507,6.46536395 0.856064044,6.13874481 C0.855752323,6.15693783 0.855752323,6.1752086 0.855752323,6.19355712 C0.855752323,8.30643538 2.36245621,10.0689814 4.36206908,10.4695388 C3.99525128,10.5692117 3.60910678,10.622469 3.21041551,10.622469 C2.9287755,10.622469 2.65492853,10.5951795 2.38809527,10.5442546 C2.94428363,12.2767899 4.55853129,13.5375506 6.4712519,13.5727705 C4.97530239,14.7423329 3.09055875,15.4394987 1.04270705,15.4394987 C0.689916703,15.4394987 0.341958036,15.4188955 0,15.3786221 C1.93438523,16.6159029 4.23200345,17.3377926 6.70044484,17.3377926 C14.7403552,17.3377926 19.1368695,10.6929087 19.1368695,4.93030844 C19.1368695,4.74122543 19.1326612,4.55315314 19.1242447,4.36616932 C19.9782047,3.75133854 20.7193216,2.98326655 21.3053572,2.10875762" id="Fill-1" fill="#EBCB80" mask="url(#mask-2)"></path>
                </g>
            </g>
        </g>
    </g>
</svg>