<?xml version="1.0" encoding="UTF-8"?>
<svg width="31.8446452px" height="26.1914062px" viewBox="0 0 31.8446452 26.1914062" version="1.1" xmlns="http://www.w3.org/2000/svg" xmlns:xlink="http://www.w3.org/1999/xlink">
    <title>hoffmann-brand</title>
    <g id="Symbols" stroke="none" stroke-width="1" fill="none" fill-rule="evenodd">
        <g id="Header-#7" transform="translate(-153.5186, -56.3008)" fill="#EBCB80" fill-rule="nonzero">
            <g id="hoffmann-brand" transform="translate(153.5186, 56.3008)">
                <polygon id="Path" points="19.4765625 25.6992188 16.4882812 25.6992188 16.4882812 13.5878906 2.98828125 13.5878906 2.98828125 25.6992188 0 25.6992188 0 0 2.98828125 0 2.98828125 10.9511719 16.4882812 10.9511719 16.4882812 0 19.4765625 0"></polygon>
                <path d="M27.6610515,23.8710938 C27.6610515,23.0507812 27.8602702,22.4677734 28.2587077,22.1220703 C28.6571452,21.7763672 29.1434734,21.6035156 29.7176921,21.6035156 C30.3153484,21.6035156 30.8192546,21.7763672 31.2294109,22.1220703 C31.6395671,22.4677734 31.8446452,23.0507812 31.8446452,23.8710938 C31.8446452,24.6796875 31.6395671,25.2685547 31.2294109,25.6376953 C30.8192546,26.0068359 30.3153484,26.1914062 29.7176921,26.1914062 C29.1434734,26.1914062 28.6571452,26.0068359 28.2587077,25.6376953 C27.8602702,25.2685547 27.6610515,24.6796875 27.6610515,23.8710938 Z" id="Path"></path>
            </g>
        </g>
    </g>
</svg>