<?xml version="1.0" encoding="UTF-8"?>
<svg width="29.4166816px" height="23.9050762px" viewBox="0 0 29.4166816 23.9050762" version="1.1" xmlns="http://www.w3.org/2000/svg" xmlns:xlink="http://www.w3.org/1999/xlink">
    <title>twitter-white</title>
    <defs>
        <polygon id="path-1" points="0.0064573991 23.9935426 29.423139 23.9935426 29.423139 0.0884663677 0.0064573991 0.0884663677"></polygon>
    </defs>
    <g id="Symbols" stroke="none" stroke-width="1" fill="none" fill-rule="evenodd">
        <g id="Header-#7" transform="translate(-1126.0065, -60.0885)">
            <g id="twitter-white" transform="translate(1126, 60)">
                <mask id="mask-2" fill="white">
                    <use xlink:href="#path-1"></use>
                </mask>
                <g id="Clip-2"></g>
                <path d="M29.423139,2.91906726 C28.3405561,3.39917489 27.177148,3.72365919 25.9560538,3.86959641 C27.2024395,3.12247534 28.1595336,1.93947982 28.6102601,0.52993722 C27.4439462,1.22163229 26.1520359,1.72401794 24.7770404,1.99479821 C23.6758386,0.821596413 22.1070135,0.0884663677 20.3708341,0.0884663677 C17.0369865,0.0884663677 14.3341345,2.79121076 14.3341345,6.12484305 C14.3341345,6.59795516 14.3876233,7.05869058 14.4905112,7.5004843 C9.4735426,7.24875336 5.02557848,4.84552466 2.048287,1.19343498 C1.52868161,2.08498655 1.23099552,3.12193722 1.23099552,4.22819731 C1.23099552,6.32243946 2.29678924,8.17011659 3.91652018,9.25259193 C2.92692377,9.22127354 1.99619731,8.94973991 1.18224215,8.49761435 C1.18181166,8.52279821 1.18181166,8.54808969 1.18181166,8.57348879 C1.18181166,11.4982601 3.2626009,13.9380807 6.02410762,14.4925561 C5.51752466,14.6305291 4.98425112,14.7042511 4.43365022,14.7042511 C4.04469955,14.7042511 3.66651121,14.6664753 3.29800897,14.5959821 C4.06611659,16.9942601 6.29542601,18.7394798 8.93693274,18.7882332 C6.87099552,20.4072108 4.26812556,21.3722691 1.44,21.3722691 C0.952789238,21.3722691 0.472251121,21.3437489 0,21.288 C2.67142601,23.0007175 5.8444843,24 9.25345291,24 C20.3567354,24 26.4284126,14.8017578 26.4284126,6.82482511 C26.4284126,6.5630852 26.4226009,6.30274439 26.4109776,6.04391031 C27.5903139,5.19282511 28.6138117,4.12961435 29.423139,2.91906726" id="Fill-1" fill="#FFFFFE" mask="url(#mask-2)"></path>
            </g>
        </g>
    </g>
</svg>