<?xml version="1.0" encoding="UTF-8"?>
<svg width="17.9604344px" height="17.9111085px" viewBox="0 0 17.9604344 17.9111085" version="1.1" xmlns="http://www.w3.org/2000/svg" xmlns:xlink="http://www.w3.org/1999/xlink">
    <title>facebook-gold</title>
    <defs>
        <polygon id="path-1" points="6.72942406e-06 17.9111353 17.9604411 17.9111353 17.9604411 2.68437179e-05 6.72942406e-06 2.68437179e-05"></polygon>
    </defs>
    <g id="Symbols" stroke="none" stroke-width="1" fill="none" fill-rule="evenodd">
        <g id="Testimonials-#2" transform="translate(-898.6991, -762.5182)">
            <g id="card-#4" transform="translate(734, 481.8)">
                <g id="facebook-gold" transform="translate(164.6991, 280.7182)">
                    <mask id="mask-2" fill="white">
                        <use xlink:href="#path-1"></use>
                    </mask>
                    <g id="Clip-2"></g>
                    <path d="M16.9691966,2.68437179e-05 L0.991251187,2.68437179e-05 C0.443745084,2.68437179e-05 6.72942406e-06,0.442545536 6.72942406e-06,0.988546762 L6.72942406e-06,16.9225752 C6.72942406e-06,17.4685093 0.443745084,17.9111622 0.991251187,17.9111622 L9.59327463,17.9111622 L9.59327463,10.9750139 L7.25264566,10.9750139 L7.25264566,8.27185146 L9.59327463,8.27185146 L9.59327463,6.27836985 C9.59327463,3.96497822 11.010088,2.70526964 13.0795211,2.70526964 C14.0708328,2.70526964 14.9227782,2.77882143 15.1710267,2.81170498 L15.1710267,5.22938445 L13.7357747,5.23005555 C12.6103455,5.23005555 12.3923794,5.76337312 12.3923794,6.54600172 L12.3923794,8.27185146 L15.0765456,8.27185146 L14.7270865,10.9750139 L12.3923794,10.9750139 L12.3923794,17.9111622 L16.9691966,17.9111622 C17.5166355,17.9111622 17.9604411,17.4685093 17.9604411,16.9225752 L17.9604411,0.988546762 C17.9604411,0.442545536 17.5166355,2.68437179e-05 16.9691966,2.68437179e-05" id="Fill-1" fill="#EBCB80" mask="url(#mask-2)"></path>
                </g>
            </g>
        </g>
    </g>
</svg>