<?xml version="1.0" encoding="UTF-8"?>
<svg width="26.3524324px" height="17.082px" viewBox="0 0 26.3524324 17.082" version="1.1" xmlns="http://www.w3.org/2000/svg" xmlns:xlink="http://www.w3.org/1999/xlink">
    <title>google-plus-gold</title>
    <g id="Symbols" stroke="none" stroke-width="1" fill="none" fill-rule="evenodd">
        <g id="Testimonials-#2" transform="translate(-994.5261, -762.5182)" fill="#EBCB80">
            <g id="card-#4" transform="translate(734, 481.8)">
                <g id="social" transform="translate(164.6991, 280.7182)">
                    <g id="google-plus-gold" transform="translate(95.827, 0)">
                        <path d="M8.38486486,7.32085714 L8.38486486,10.2492 L13.1402811,10.2492 C12.948627,11.5059471 11.7028757,13.9340314 8.38486486,13.9340314 C5.52203243,13.9340314 3.18624865,11.5181486 3.18624865,8.541 C3.18624865,5.56385143 5.52203243,3.14796857 8.38486486,3.14796857 C10.0139243,3.14796857 11.1039568,3.85565143 11.7268324,4.46572286 L14.0027243,2.23286143 C12.5413622,0.841898571 10.6487784,0 8.38486486,0 C3.74923243,0 0,3.81904714 0,8.541 C0,13.2629529 3.74923243,17.082 8.38486486,17.082 C13.2241297,17.082 16.4343351,13.6167943 16.4343351,8.73622286 C16.4343351,8.17495714 16.3744432,7.74790714 16.302573,7.32085714 L8.38486486,7.32085714 L8.38486486,7.32085714 Z" id="Shape"></path>
                        <polyline id="Shape" points="26.3524324 7.32085714 23.9567568 7.32085714 23.9567568 4.88057143 21.5610811 4.88057143 21.5610811 7.32085714 19.1654054 7.32085714 19.1654054 9.76114286 21.5610811 9.76114286 21.5610811 12.2014286 23.9567568 12.2014286 23.9567568 9.76114286 26.3524324 9.76114286"></polyline>
                    </g>
                </g>
            </g>
        </g>
    </g>
</svg>