<?xml version="1.0" encoding="UTF-8"?>
<svg width="18.4526649px" height="17.8883182px" viewBox="0 0 18.4526649 17.8883182" version="1.1" xmlns="http://www.w3.org/2000/svg" xmlns:xlink="http://www.w3.org/1999/xlink">
    <title>linkedin-gold</title>
    <defs>
        <polygon id="path-1" points="0.0343434137 17.8883182 18.4870083 17.8883182 18.4870083 0 0.0343434137 0"></polygon>
    </defs>
    <g id="Symbols" stroke="none" stroke-width="1" fill="none" fill-rule="evenodd">
        <g id="Testimonials-#2" transform="translate(-930.6758, -762.5182)">
            <g id="card-#4" transform="translate(734, 481.8)">
                <g id="social" transform="translate(164.6991, 280.7182)">
                    <g id="linkedin-gold" transform="translate(31.9423, 0)">
                        <mask id="mask-2" fill="white">
                            <use xlink:href="#path-1"></use>
                        </mask>
                        <g id="Clip-9"></g>
                        <path d="M15.7590136,15.2682818 L13.0228174,15.2682818 L13.0228174,11.1097705 C13.0228174,10.1182977 13.0048768,8.84262273 11.600385,8.84262273 C10.1764148,8.84262273 9.95907738,9.92318864 9.95907738,11.0390932 L9.95907738,15.2682818 L7.22544417,15.2682818 L7.22544417,6.71732727 L9.8488709,6.71732727 L9.8488709,7.88648864 L9.88628985,7.88648864 C10.2512527,7.21405909 11.144694,6.50529545 12.4763983,6.50529545 C15.2469379,6.50529545 15.7590136,8.27571136 15.7590136,10.5786955 L15.7590136,15.2682818 L15.7590136,15.2682818 Z M4.13915023,5.54916136 C3.26006136,5.54916136 2.55166438,4.85881364 2.55166438,4.0077 C2.55166438,3.15708409 3.26006136,2.46673636 4.13915023,2.46673636 C5.01465099,2.46673636 5.72561091,3.15708409 5.72561091,4.0077 C5.72561091,4.85881364 5.01465099,5.54916136 4.13915023,5.54916136 L4.13915023,5.54916136 Z M2.7690018,15.2682818 L5.50827348,15.2682818 L5.50827348,6.71732727 L2.7690018,6.71732727 L2.7690018,15.2682818 Z M17.1219858,0 L1.39577784,0 C0.644836036,0 0.0343434137,0.578359091 0.0343434137,1.2921 L0.0343434137,16.6250864 C0.0343434137,17.3388273 0.644836036,17.9181818 1.39577784,17.9181818 L17.1219858,17.9181818 C17.8749779,17.9181818 18.4870083,17.3388273 18.4870083,16.6250864 L18.4870083,1.2921 C18.4870083,0.578359091 17.8749779,0 17.1219858,0 L17.1219858,0 Z" id="Fill-10" fill="#EBCB80" mask="url(#mask-2)"></path>
                    </g>
                </g>
            </g>
        </g>
    </g>
</svg>