<?xml version="1.0" encoding="UTF-8"?>
<svg width="46.546875px" height="35.2265625px" viewBox="0 0 46.546875 35.2265625" version="1.1" xmlns="http://www.w3.org/2000/svg" xmlns:xlink="http://www.w3.org/1999/xlink">
    <title>quotation-marks</title>
    <g id="Symbols" stroke="none" stroke-width="1" fill="none" fill-rule="evenodd">
        <g id="Testimonials-#2" transform="translate(-797.15, -661.3486)" fill="#E6E6E6" fill-rule="nonzero">
            <g id="card-#4" transform="translate(734, 481.8)">
                <g id="quotation-marks" transform="translate(63.15, 179.5486)">
                    <path d="M46.546875,0 C45.5625,3.609375 44.5898438,7.51171875 43.6289062,11.7070312 C42.6679688,15.9023438 41.7890625,20.0390625 40.9921875,24.1171875 C40.1953125,28.1953125 39.5625,31.8984375 39.09375,35.2265625 L26.6484375,35.2265625 L25.59375,33.6796875 C26.4375,30.2578125 27.5273438,26.6015625 28.8632812,22.7109375 C30.1992188,18.8203125 31.6523438,14.9179688 33.2226562,11.0039062 C34.7929688,7.08984375 36.375,3.421875 37.96875,0 L46.546875,0 Z M20.671875,0 C19.6875,3.609375 18.7148438,7.51171875 17.7539062,11.7070312 C16.7929688,15.9023438 15.9140625,20.0390625 15.1171875,24.1171875 C14.3203125,28.1953125 13.6875,31.8984375 13.21875,35.2265625 L0.84375,35.2265625 L0,33.6796875 C0.84375,30.2578125 1.91015625,26.6015625 3.19921875,22.7109375 C4.48828125,18.8203125 5.90625,14.9179688 7.453125,11.0039062 C9,7.08984375 10.5703125,3.421875 12.1640625,0 L20.671875,0 Z" id="Shape"></path>
                </g>
            </g>
        </g>
    </g>
</svg>