<?xml version="1.0" encoding="UTF-8"?>
<svg width="22.5121536px" height="17.8473126px" viewBox="0 0 22.5121536 17.8473126" version="1.1" xmlns="http://www.w3.org/2000/svg" xmlns:xlink="http://www.w3.org/1999/xlink">
    <title>twitter-gold</title>
    <defs>
        <polygon id="path-1" points="0.00494175252 17.9133608 22.5170953 17.9133608 22.5170953 0.0660481859 0.00494175252 0.0660481859"></polygon>
    </defs>
    <g id="Symbols" stroke="none" stroke-width="1" fill="none" fill-rule="evenodd">
        <g id="Testimonials-#2" transform="translate(-963.5869, -762.5842)">
            <g id="card-#4" transform="translate(734, 481.8)">
                <g id="social" transform="translate(164.6991, 280.7182)">
                    <g id="twitter-gold" transform="translate(64.8829, 0)">
                        <mask id="mask-2" fill="white">
                            <use xlink:href="#path-1"></use>
                        </mask>
                        <g id="Clip-2"></g>
                        <path d="M22.5170953,2.17934908 C21.6886105,2.53779307 20.7982714,2.7800501 19.863786,2.8890055 C20.8176266,2.3312117 21.5500767,1.447998 21.8950111,0.395646311 C21.0024482,0.91205956 20.0137682,1.28713612 18.9615044,1.48929821 C18.1187709,0.613396413 16.9181721,0.0660481859 15.5894996,0.0660481859 C13.0381551,0.0660481859 10.9697022,2.08389258 10.9697022,4.57275214 C10.9697022,4.92597334 11.0106364,5.26995422 11.089375,5.5997934 C7.24996275,5.41185336 3.84600126,3.61762466 1.5675239,0.891007705 C1.16987755,1.556632 0.942062754,2.33080995 0.942062754,3.15673367 C0.942062754,4.72027583 1.75769901,6.09973477 2.99725526,6.90790102 C2.23993169,6.884519 1.52766043,6.68179446 0.904752523,6.34424162 C0.904423073,6.36304366 0.904423073,6.38192605 0.904423073,6.40088879 C0.904423073,8.58449645 2.49682046,10.4060444 4.61016092,10.8200106 C4.22248044,10.9230201 3.81437404,10.9780602 3.39300728,10.9780602 C3.09534905,10.9780602 2.80592708,10.9498572 2.52391773,10.8972275 C3.1117392,12.6877601 4.81779689,13.9907253 6.83930312,14.0271241 C5.25827176,15.235838 3.26633369,15.9563418 1.10201081,15.9563418 C0.729155584,15.9563418 0.361406834,15.9350489 0,15.8934273 C2.04440302,17.1721266 4.47269784,17.9181818 7.08153135,17.9181818 C15.5787101,17.9181818 20.2252752,11.0508578 20.2252752,5.09535238 C20.2252752,4.89993975 20.2208277,4.70557167 20.2119325,4.5123285 C21.1144612,3.87691602 21.897729,3.08313253 22.5170953,2.17934908" id="Fill-1" fill="#EBCB80" mask="url(#mask-2)"></path>
                    </g>
                </g>
            </g>
        </g>
    </g>
</svg>