<?xml version="1.0" encoding="UTF-8"?>
<svg width="36.798051px" height="49.0746109px" viewBox="0 0 36.798051 49.0746109" version="1.1" xmlns="http://www.w3.org/2000/svg" xmlns:xlink="http://www.w3.org/1999/xlink">
    <title>layers</title>
    <g id="Symbols" stroke="none" stroke-width="1" fill="none" fill-rule="evenodd" stroke-linecap="round" stroke-linejoin="round">
        <g id="Advantages-#2" transform="translate(-170.7936, -572.8702)" stroke="#4B4B4B" stroke-width="2">
            <g id="layers" transform="translate(171, 573)">
                <path d="M22.5353,1.9968 C21.2545,0.5894 19.0719,0.4867 17.6645,1.7675 L1.9968,16.0265 C0.5894,17.3074 0.4867,19.49 1.7676,20.8974 L13.9265,34.2575 C15.2074,35.6649 17.3899,35.7677 18.7973,34.4868 L34.465,20.2278 C35.8724,18.9469 35.9752,16.7644 34.6943,15.3569 L22.5353,1.9968 Z" id="Stroke-1"></path>
                <path d="M1.8987,23.371 C0.5445,24.6033 0.4458,26.7002 1.6782,28.0543 L13.3692,40.9002 C14.6016,42.2544 16.6984,42.3531 18.0525,41.1207 L33.1172,27.4105 C34.4713,26.1781 34.57,24.0813 33.3376,22.7271" id="Stroke-2"></path>
                <path d="M1.8606,29.6209 C0.5275,30.8341 0.4303,32.8983 1.6436,34.2314 L13.1529,46.8778 C14.3662,48.2109 16.4304,48.3081 17.7635,47.0948 L32.5941,33.5976 C33.9272,32.3844 34.0244,30.3201 32.8111,28.987" id="Stroke-3"></path>
                <line x1="7.5923" y1="17.9448" x2="19.5923" y2="6.9448" id="Stroke-4"></line>
            </g>
        </g>
    </g>
</svg>